<svg version="1.1" xmlns="http://www.w3.org/2000/svg" xmlns:xlink="http://www.w3.org/1999/xlink" width="2900" height="2450"><defs/><g fill="none" fill-rule="nonzero" stroke="none" stroke-width="none" stroke-linecap="butt" stroke-linejoin="miter" stroke-miterlimit="10" stroke-dasharray="" stroke-dashoffset="0" font-family="sans-serif" font-weight="normal" font-size="11px" text-anchor="start" style="mix-blend-mode: normal"><g fill="#ffffff" stroke="none" stroke-width="1"/><g fill="#ffffff" stroke="none" stroke-width="1"><rect x="0" y="0" width="2900" height="2450"/></g><g fill="#ffffff" stroke="none" stroke-width="1"><rect x="0" y="0" width="2900" height="2450"/></g><g><rect x="0" y="0" width="2900" height="2450" fill="#ffffff" stroke="none" stroke-width="1"/><g><rect x="332" y="71" width="47.97157" height="49.31438" fill="#8382e3" stroke="#bbbbbb" stroke-width="1.5"/><rect x="389.97157" y="71" width="47.97157" height="49.31438" fill="#8382e3" stroke="#bbbbbb" stroke-width="1.5"/><rect x="447.94313" y="71" width="47.97157" height="49.31438" fill="#8382e3" stroke="#bbbbbb" stroke-width="1.5"/><rect x="505.9147" y="71" width="47.97157" height="49.31438" fill="#8382e3" stroke="#bbbbbb" stroke-width="1.5"/><rect x="563.88626" y="71" width="47.97157" height="49.31438" fill="#8382e3" stroke="#bbbbbb" stroke-width="1.5"/><rect x="621.85783" y="71" width="47.97157" height="49.31438" fill="#8382e3" stroke="#bbbbbb" stroke-width="1.5"/><rect x="679.82939" y="71" width="47.97157" height="49.31438" fill="#8382e3" stroke="#bbbbbb" stroke-width="1.5"/><rect x="737.80096" y="71" width="47.97157" height="49.31438" fill="#8382e3" stroke="#bbbbbb" stroke-width="1.5"/><rect x="795.77253" y="71" width="47.97157" height="49.31438" fill="#8382e3" stroke="#bbbbbb" stroke-width="1.5"/><rect x="853.74409" y="71" width="47.97157" height="49.31438" fill="#8382e3" stroke="#bbbbbb" stroke-width="1.5"/><rect x="332" y="133.31438" width="47.97157" height="49.31438" fill="#8382e3" stroke="#bbbbbb" stroke-width="1.5"/><rect x="389.97157" y="133.31438" width="47.97157" height="49.31438" fill="#8382e3" stroke="#bbbbbb" stroke-width="1.5"/><rect x="447.94313" y="133.31438" width="47.97157" height="49.31438" fill="#8382e3" stroke="#bbbbbb" stroke-width="1.5"/><rect x="505.9147" y="133.31438" width="47.97157" height="49.31438" fill="#5047c2" stroke="#bbbbbb" stroke-width="1.5"/><rect x="563.88626" y="133.31438" width="47.97157" height="49.31438" fill="#5047c2" stroke="#bbbbbb" stroke-width="1.5"/><rect x="621.85783" y="133.31438" width="47.97157" height="49.31438" fill="#5047c2" stroke="#bbbbbb" stroke-width="1.5"/><rect x="679.82939" y="133.31438" width="47.97157" height="49.31438" fill="#5047c2" stroke="#bbbbbb" stroke-width="1.5"/><rect x="737.80096" y="133.31438" width="47.97157" height="49.31438" fill="#5047c2" stroke="#bbbbbb" stroke-width="1.5"/><rect x="795.77253" y="133.31438" width="47.97157" height="49.31438" fill="#5047c2" stroke="#bbbbbb" stroke-width="1.5"/><rect x="853.74409" y="133.31438" width="47.97157" height="49.31438" fill="#5047c2" stroke="#bbbbbb" stroke-width="1.5"/><rect x="332" y="195.62875" width="47.97157" height="49.31438" fill="#5047c2" stroke="#bbbbbb" stroke-width="1.5"/><rect x="389.97157" y="195.62875" width="47.97157" height="49.31438" fill="#5047c2" stroke="#bbbbbb" stroke-width="1.5"/><rect x="447.94313" y="195.62875" width="47.97157" height="49.31438" fill="#5047c2" stroke="#bbbbbb" stroke-width="1.5"/><rect x="505.9147" y="195.62875" width="47.97157" height="49.31438" fill="#5047c2" stroke="#bbbbbb" stroke-width="1.5"/><rect x="563.88626" y="195.62875" width="47.97157" height="49.31438" fill="#5047c2" stroke="#bbbbbb" stroke-width="1.5"/><rect x="621.85783" y="195.62875" width="47.97157" height="49.31438" fill="#5047c2" stroke="#bbbbbb" stroke-width="1.5"/><rect x="679.82939" y="195.62875" width="47.97157" height="49.31438" fill="#5047c2" stroke="#bbbbbb" stroke-width="1.5"/><rect x="737.80096" y="195.62875" width="47.97157" height="49.31438" fill="#5047c2" stroke="#bbbbbb" stroke-width="1.5"/><rect x="795.77253" y="195.62875" width="47.97157" height="49.31438" fill="#5047c2" stroke="#bbbbbb" stroke-width="1.5"/><rect x="853.74409" y="195.62875" width="47.97157" height="49.31438" fill="#5047c2" stroke="#bbbbbb" stroke-width="1.5"/><rect x="332" y="257.94313" width="47.97157" height="49.31438" fill="#5047c2" stroke="#bbbbbb" stroke-width="1.5"/><rect x="389.97157" y="257.94313" width="47.97157" height="49.31438" fill="#335d94" stroke="#bbbbbb" stroke-width="1.5"/><rect x="447.94313" y="257.94313" width="47.97157" height="49.31438" fill="#335d94" stroke="#bbbbbb" stroke-width="1.5"/><rect x="505.9147" y="257.94313" width="47.97157" height="49.31438" fill="#335d94" stroke="#bbbbbb" stroke-width="1.5"/><rect x="563.88626" y="257.94313" width="47.97157" height="49.31438" fill="#335d94" stroke="#bbbbbb" stroke-width="1.5"/><rect x="621.85783" y="257.94313" width="47.97157" height="49.31438" fill="#335d94" stroke="#bbbbbb" stroke-width="1.5"/><rect x="679.82939" y="257.94313" width="47.97157" height="49.31438" fill="#335d94" stroke="#bbbbbb" stroke-width="1.5"/><rect x="737.80096" y="257.94313" width="47.97157" height="49.31438" fill="#335d94" stroke="#bbbbbb" stroke-width="1.5"/><rect x="795.77253" y="257.94313" width="47.97157" height="49.31438" fill="#335d94" stroke="#bbbbbb" stroke-width="1.5"/><rect x="853.74409" y="257.94313" width="47.97157" height="49.31438" fill="#335d94" stroke="#bbbbbb" stroke-width="1.5"/><rect x="332" y="320.25751" width="47.97157" height="49.31438" fill="#335d94" stroke="#bbbbbb" stroke-width="1.5"/><rect x="389.97157" y="320.25751" width="47.97157" height="49.31438" fill="#335d94" stroke="#bbbbbb" stroke-width="1.5"/><rect x="447.94313" y="320.25751" width="47.97157" height="49.31438" fill="#335d94" stroke="#bbbbbb" stroke-width="1.5"/><rect x="505.9147" y="320.25751" width="47.97157" height="49.31438" fill="#335d94" stroke="#bbbbbb" stroke-width="1.5"/><rect x="563.88626" y="320.25751" width="47.97157" height="49.31438" fill="#335d94" stroke="#bbbbbb" stroke-width="1.5"/><rect x="621.85783" y="320.25751" width="47.97157" height="49.31438" fill="#335d94" stroke="#bbbbbb" stroke-width="1.5"/><rect x="679.82939" y="320.25751" width="47.97157" height="49.31438" fill="#335d94" stroke="#bbbbbb" stroke-width="1.5"/><rect x="737.80096" y="320.25751" width="47.97157" height="49.31438" fill="#335d94" stroke="#bbbbbb" stroke-width="1.5"/><rect x="795.77253" y="320.25751" width="47.97157" height="49.31438" fill="#335d94" stroke="#bbbbbb" stroke-width="1.5"/><rect x="853.74409" y="320.25751" width="47.97157" height="49.31438" fill="#335d94" stroke="#bbbbbb" stroke-width="1.5"/><rect x="332" y="382.57189" width="47.97157" height="49.31438" fill="#335d94" stroke="#bbbbbb" stroke-width="1.5"/><rect x="389.97157" y="382.57189" width="47.97157" height="49.31438" fill="#9a4c4c" stroke="#bbbbbb" stroke-width="1.5"/><rect x="447.94313" y="382.57189" width="47.97157" height="49.31438" fill="#9a4c4c" stroke="#bbbbbb" stroke-width="1.5"/><rect x="505.9147" y="382.57189" width="47.97157" height="49.31438" fill="#9a4c4c" stroke="#bbbbbb" stroke-width="1.5"/><rect x="563.88626" y="382.57189" width="47.97157" height="49.31438" fill="#9a4c4c" stroke="#bbbbbb" stroke-width="1.5"/><rect x="621.85783" y="382.57189" width="47.97157" height="49.31438" fill="#9a4c4c" stroke="#bbbbbb" stroke-width="1.5"/><rect x="679.82939" y="382.57189" width="47.97157" height="49.31438" fill="#9a4c4c" stroke="#bbbbbb" stroke-width="1.5"/><rect x="737.80096" y="382.57189" width="47.97157" height="49.31438" fill="#9a4c4c" stroke="#bbbbbb" stroke-width="1.5"/><rect x="795.77253" y="382.57189" width="47.97157" height="49.31438" fill="#9a4c4c" stroke="#bbbbbb" stroke-width="1.5"/><rect x="853.74409" y="382.57189" width="47.97157" height="49.31438" fill="#9a4c4c" stroke="#bbbbbb" stroke-width="1.5"/><rect x="332" y="444.88626" width="47.97157" height="49.31438" fill="#9a4c4c" stroke="#bbbbbb" stroke-width="1.5"/><rect x="389.97157" y="444.88626" width="47.97157" height="49.31438" fill="#9a4c4c" stroke="#bbbbbb" stroke-width="1.5"/><rect x="447.94313" y="444.88626" width="47.97157" height="49.31438" fill="#9a4c4c" stroke="#bbbbbb" stroke-width="1.5"/><rect x="505.9147" y="444.88626" width="47.97157" height="49.31438" fill="#9a4c4c" stroke="#bbbbbb" stroke-width="1.5"/><rect x="563.88626" y="444.88626" width="47.97157" height="49.31438" fill="#9a4c4c" stroke="#bbbbbb" stroke-width="1.5"/><rect x="621.85783" y="444.88626" width="47.97157" height="49.31438" fill="#9a4c4c" stroke="#bbbbbb" stroke-width="1.5"/><rect x="679.82939" y="444.88626" width="47.97157" height="49.31438" fill="#9a4c4c" stroke="#bbbbbb" stroke-width="1.5"/><rect x="737.80096" y="444.88626" width="47.97157" height="49.31438" fill="#9a4c4c" stroke="#bbbbbb" stroke-width="1.5"/><rect x="795.77253" y="444.88626" width="47.97157" height="49.31438" fill="#9a4c4c" stroke="#bbbbbb" stroke-width="1.5"/><rect x="853.74409" y="444.88626" width="47.97157" height="49.31438" fill="#9a4c4c" stroke="#bbbbbb" stroke-width="1.5"/><rect x="332" y="507.20064" width="47.97157" height="49.31438" fill="#9a4c4c" stroke="#bbbbbb" stroke-width="1.5"/><rect x="389.97157" y="507.20064" width="47.97157" height="49.31438" fill="#9a4c4c" stroke="#bbbbbb" stroke-width="1.5"/><rect x="447.94313" y="507.20064" width="47.97157" height="49.31438" fill="#9a4c4c" stroke="#bbbbbb" stroke-width="1.5"/><rect x="505.9147" y="507.20064" width="47.97157" height="49.31438" fill="#9a4c4c" stroke="#bbbbbb" stroke-width="1.5"/><rect x="563.88626" y="507.20064" width="47.97157" height="49.31438" fill="#9a4c4c" stroke="#bbbbbb" stroke-width="1.5"/><rect x="621.85783" y="507.20064" width="47.97157" height="49.31438" fill="#9a4c4c" stroke="#bbbbbb" stroke-width="1.5"/><rect x="679.82939" y="507.20064" width="47.97157" height="49.31438" fill="#c02121" stroke="#bbbbbb" stroke-width="1.5"/><rect x="737.80096" y="507.20064" width="47.97157" height="49.31438" fill="#c02121" stroke="#bbbbbb" stroke-width="1.5"/><rect x="795.77253" y="507.20064" width="47.97157" height="49.31438" fill="#c02121" stroke="#bbbbbb" stroke-width="1.5"/><rect x="853.74409" y="507.20064" width="47.97157" height="49.31438" fill="#c02121" stroke="#bbbbbb" stroke-width="1.5"/><rect x="332" y="569.51502" width="47.97157" height="49.31438" fill="#c02121" stroke="#bbbbbb" stroke-width="1.5"/><rect x="389.97157" y="569.51502" width="47.97157" height="49.31438" fill="#c02121" stroke="#bbbbbb" stroke-width="1.5"/><rect x="447.94313" y="569.51502" width="47.97157" height="49.31438" fill="#c02121" stroke="#bbbbbb" stroke-width="1.5"/><rect x="505.9147" y="569.51502" width="47.97157" height="49.31438" fill="#c02121" stroke="#bbbbbb" stroke-width="1.5"/><rect x="563.88626" y="569.51502" width="47.97157" height="49.31438" fill="#c02121" stroke="#bbbbbb" stroke-width="1.5"/><rect x="621.85783" y="569.51502" width="47.97157" height="49.31438" fill="#c02121" stroke="#bbbbbb" stroke-width="1.5"/><rect x="679.82939" y="569.51502" width="47.97157" height="49.31438" fill="#c02121" stroke="#bbbbbb" stroke-width="1.5"/><rect x="737.80096" y="569.51502" width="47.97157" height="49.31438" fill="#c02121" stroke="#bbbbbb" stroke-width="1.5"/><rect x="795.77253" y="569.51502" width="47.97157" height="49.31438" fill="#c02121" stroke="#bbbbbb" stroke-width="1.5"/><rect x="853.74409" y="569.51502" width="47.97157" height="49.31438" fill="#c02121" stroke="#bbbbbb" stroke-width="1.5"/><rect x="332" y="631.82939" width="47.97157" height="49.31438" fill="#c02121" stroke="#bbbbbb" stroke-width="1.5"/><rect x="389.97157" y="631.82939" width="47.97157" height="49.31438" fill="#c02121" stroke="#bbbbbb" stroke-width="1.5"/><rect x="447.94313" y="631.82939" width="47.97157" height="49.31438" fill="#c02121" stroke="#bbbbbb" stroke-width="1.5"/><rect x="505.9147" y="631.82939" width="47.97157" height="49.31438" fill="#c02121" stroke="#bbbbbb" stroke-width="1.5"/><rect x="563.88626" y="631.82939" width="47.97157" height="49.31438" fill="#c02121" stroke="#bbbbbb" stroke-width="1.5"/><rect x="621.85783" y="631.82939" width="47.97157" height="49.31438" fill="#c02121" stroke="#bbbbbb" stroke-width="1.5"/><rect x="679.82939" y="631.82939" width="47.97157" height="49.31438" fill="#c02121" stroke="#bbbbbb" stroke-width="1.5"/><rect x="737.80096" y="631.82939" width="47.97157" height="49.31438" fill="#c02121" stroke="#bbbbbb" stroke-width="1.5"/><rect x="795.77253" y="631.82939" width="47.97157" height="49.31438" fill="#c02121" stroke="#bbbbbb" stroke-width="1.5"/><rect x="853.74409" y="631.82939" width="47.97157" height="49.31438" fill="#c02121" stroke="#bbbbbb" stroke-width="1.5"/></g><g><rect x="932.21506" y="72.70104" width="50.96" height="18.79936" fill="#8382e3" stroke="#bbbbbb" stroke-width="1.5"/><rect x="932.21506" y="96.5004" width="70.56" height="18.79936" fill="#5047c2" stroke="#bbbbbb" stroke-width="1.5"/><rect x="932.21506" y="120.29976" width="78.4" height="18.79936" fill="#335d94" stroke="#bbbbbb" stroke-width="1.5"/><rect x="932.21506" y="144.09912" width="98" height="18.79936" fill="#9a4c4c" stroke="#bbbbbb" stroke-width="1.5"/><rect x="932.21506" y="167.89848" width="94.08" height="18.79936" fill="#c02121" stroke="#bbbbbb" stroke-width="1.5"/></g></g><g transform="translate(931.5182204900507,262.9367262131769)"><g class="color-scale-palette" transform="translate(0,0)"><rect height="14" width="14" fill="#8382e3" style="stroke-width: 1px; stroke: rgb(231, 231, 231);"/><text dy="0.3em" x="18" y="7" title="Children 0-18" class="" fill="#444" style="font-size: 10px;">Children 0-18</text></g><g class="color-scale-palette" transform="translate(0,26)"><rect height="14" width="14" fill="#5047c2" style="stroke-width: 1px; stroke: rgb(231, 231, 231);"/><text dy="0.3em" x="18" y="7" title="Adults 19-34" class="" fill="#444" style="font-size: 10px;">Adults 19-34</text></g><g class="color-scale-palette" transform="translate(0,52)"><rect height="14" width="14" fill="#335d94" style="stroke-width: 1px; stroke: rgb(231, 231, 231);"/><text dy="0.3em" x="18" y="7" title="Adults 35-50" fill="#444" style="font-size: 10px;">Adults 35-50</text></g><g class="color-scale-palette" transform="translate(0,78)"><rect height="14" width="14" fill="#9a4c4c" style="stroke-width: 1px; stroke: rgb(231, 231, 231);"/><text dy="0.3em" x="18" y="7" title="Adults 50-64" fill="#444" style="font-size: 10px;">Adults 50-64</text></g><g class="color-scale-palette" transform="translate(0,104)"><rect height="14" width="14" fill="#c02121" style="stroke-width: 1px; stroke: rgb(231, 231, 231);"/><text dy="0.3em" x="18" y="7" title="65+" fill="#444" style="font-size: 10px;">65+</text></g><text class="color-scale-label" y="-14" dy="0.3em" fill="#444" style="font-size: 10px;">Age Bin</text></g><g class="domain" transform="translate(932.2150592972564,208.69784153718496)" fill="none" font-size="10" font-family="sans-serif" text-anchor="middle" style="pointer-events: none;"><path class="domain" stroke="#444" d="M0.5,6V0.5H98.5V6"/><g class="tick" opacity="1" transform="translate(0,0)"><line stroke="#444" y2="6" x1="0.5" x2="0.5"/><text fill="#444" y="9" x="0.5" dy="0.71em">0</text></g><g class="tick" opacity="1" transform="translate(19.6,0)"><line stroke="#444" y2="6" x1="0.5" x2="0.5"/><text fill="#444" y="9" x="0.5" dy="0.71em">5</text></g><g class="tick" opacity="1" transform="translate(39.2,0)"><line stroke="#444" y2="6" x1="0.5" x2="0.5"/><text fill="#444" y="9" x="0.5" dy="0.71em">10</text></g><g class="tick" opacity="1" transform="translate(58.8,0)"><line stroke="#444" y2="6" x1="0.5" x2="0.5"/><text fill="#444" y="9" x="0.5" dy="0.71em">15</text></g><g class="tick" opacity="1" transform="translate(78.4,0)"><line stroke="#444" y2="6" x1="0.5" x2="0.5"/><text fill="#444" y="9" x="0.5" dy="0.71em">20</text></g><g class="tick" opacity="1" transform="translate(98,0)"><line stroke="#444" y2="6" x1="0.5" x2="0.5"/><text fill="#444" y="9" x="0.5" dy="0.71em">25</text></g><g class="axis-label" transform="translate(2,5)"><text class="attribute" dy="0.3em" style="text-anchor: start;" fill="#444">id</text></g></g></g></svg>